<svg xmlns="http://www.w3.org/2000/svg"
  xmlns:xlink="http://www.w3.org/1999/xlink" style="display:block">
  <!-- React Icon -->
  <symbol id="react" viewBox="0 0 569 512">
    <g fill="none" fill-rule="evenodd">
      <g transform="translate(-227, -256)" fill="#58C4DC" fill-rule="nonzero">
        <g transform="translate(227, 256)">
          <path d="M285.5,201 C255.400481,201 231,225.400481 231,255.5 C231,285.599519 255.400481,310 285.5,310 C315.599519,310 340,285.599519 340,255.5 C340,225.400481 315.599519,201 285.5,201" id="Path"></path>
          <path d="M568.959856,255.99437 C568.959856,213.207656 529.337802,175.68144 466.251623,150.985214 C467.094645,145.423543 467.85738,139.922107 468.399323,134.521063 C474.621631,73.0415145 459.808523,28.6686204 426.709856,9.5541429 C389.677085,-11.8291748 337.36955,3.69129898 284.479928,46.0162134 C231.590306,3.69129898 179.282771,-11.8291748 142.25,9.5541429 C109.151333,28.6686204 94.3382249,73.0415145 100.560533,134.521063 C101.102476,139.922107 101.845139,145.443621 102.708233,151.02537 C97.4493791,153.033193 92.2908847,155.161486 87.3331099,157.39017 C31.0111824,182.708821 0,217.765415 0,255.99437 C0,298.781084 39.6220545,336.307301 102.708233,361.003527 C101.845139,366.565197 101.102476,372.066633 100.560533,377.467678 C94.3382249,438.947226 109.151333,483.32012 142.25,502.434597 C153.629683,508.887578 166.52439,512.186771 179.603923,511.991836 C210.956328,511.991836 247.567589,495.487529 284.479928,465.972527 C321.372196,495.487529 358.003528,511.991836 389.396077,511.991836 C402.475265,512.183856 415.36922,508.884856 426.75,502.434597 C459.848667,483.32012 474.661775,438.947226 468.439467,377.467678 C467.897524,372.066633 467.134789,366.565197 466.291767,361.003527 C529.377946,336.347457 569,298.761006 569,255.99437 M389.155214,27.1025182 C397.565154,26.899606 405.877839,28.9368502 413.241569,33.0055186 C436.223966,46.2772304 446.540955,82.2775015 441.522965,131.770345 C441.181741,135.143488 440.780302,138.556788 440.298575,141.990165 C414.066922,134.08804 387.205771,128.452154 360.010724,125.144528 C343.525021,103.224055 325.192524,82.7564475 305.214266,63.9661533 C336.586743,39.7116483 366.032313,27.1025182 389.135142,27.1025182 M378.356498,310.205598 C368.204912,327.830733 357.150626,344.919965 345.237759,361.405091 C325.045049,363.479997 304.758818,364.51205 284.459856,364.497299 C264.167589,364.51136 243.888075,363.479308 223.702025,361.405091 C211.820914,344.919381 200.80007,327.83006 190.683646,310.205598 C180.532593,292.629285 171.306974,274.534187 163.044553,255.99437 C171.306974,237.454554 180.532593,219.359455 190.683646,201.783142 C200.784121,184.229367 211.770999,167.201087 223.601665,150.764353 C243.824636,148.63809 264.145559,147.579168 284.479928,147.591877 C304.772146,147.579725 325.051559,148.611772 345.237759,150.68404 C357.109048,167.14607 368.136094,184.201112 378.27621,201.783142 C388.419418,219.363718 397.644825,237.458403 405.915303,255.99437 C397.644825,274.530337 388.419418,292.625022 378.27621,310.205598 M419.724813,290.127366 C426.09516,307.503536 431.324985,325.277083 435.380944,343.334682 C417.779633,348.823635 399.836793,353.149774 381.668372,356.285142 C388.573127,345.871232 395.263781,335.035679 401.740334,323.778483 C408.143291,312.655143 414.144807,301.431411 419.805101,290.207679 M246.363271,390.377981 C258.848032,391.140954 271.593728,391.582675 284.5,391.582675 C297.406272,391.582675 310.232256,391.140954 322.737089,390.377981 C310.880643,404.583418 298.10766,417.997563 284.5,430.534446 C270.921643,417.999548 258.18192,404.585125 246.363271,390.377981 Z M187.311556,356.244986 C169.137286,353.123646 151.187726,348.810918 133.578912,343.334682 C137.618549,325.305649 142.828222,307.559058 149.174827,290.207679 C154.754833,301.431411 160.736278,312.655143 167.239594,323.778483 C173.74291,334.901824 180.467017,345.864539 187.311556,356.285142 M149.174827,221.760984 C142.850954,204.473938 137.654787,186.794745 133.619056,168.834762 C151.18418,163.352378 169.085653,159.013101 187.211197,155.844146 C180.346585,166.224592 173.622478,176.986525 167.139234,188.210257 C160.65599,199.433989 154.734761,210.517173 149.074467,221.760984 M322.616657,121.590681 C310.131896,120.827708 297.3862,120.385987 284.379568,120.385987 C271.479987,120.385987 258.767744,120.787552 246.242839,121.590681 C258.061488,107.383537 270.801211,93.9691137 284.379568,81.4342157 C297.99241,93.9658277 310.765727,107.380324 322.616657,121.590681 Z M401.70019,188.210257 C395.196875,176.939676 388.472767,166.09743 381.527868,155.68352 C399.744224,158.819049 417.734224,163.151949 435.380944,168.654058 C431.331963,186.680673 426.122466,204.426664 419.785029,221.781062 C414.205023,210.55733 408.203506,199.333598 401.720262,188.230335 M127.517179,131.790423 C122.438973,82.3176579 132.816178,46.2973086 155.778503,33.0255968 C163.144699,28.9632474 171.455651,26.9264282 179.864858,27.1225964 C202.967687,27.1225964 232.413257,39.7317265 263.785734,63.9862316 C243.794133,82.7898734 225.448298,103.270812 208.949132,125.204763 C181.761691,128.528025 154.90355,134.14313 128.661281,141.990165 C128.199626,138.556788 127.778115,135.163566 127.456963,131.790423 M98.4529773,182.106474 C101.54406,180.767925 104.695358,179.429376 107.906872,178.090828 C114.220532,204.735668 122.781793,230.7969 133.498624,255.99437 C122.761529,281.241316 114.193296,307.357063 107.8868,334.058539 C56.7434387,313.076786 27.0971497,284.003505 27.0971497,255.99437 C27.0971497,229.450947 53.1907013,202.526037 98.4529773,182.106474 Z M155.778503,478.963143 C132.816178,465.691432 122.438973,429.671082 127.517179,380.198317 C127.838331,376.825174 128.259842,373.431953 128.721497,369.978497 C154.953686,377.878517 181.814655,383.514365 209.009348,386.824134 C225.500295,408.752719 243.832321,429.233234 263.805806,448.042665 C220.069,481.834331 180.105722,492.97775 155.838719,478.963143 M441.502893,380.198317 C446.520883,429.691161 436.203894,465.691432 413.221497,478.963143 C388.974566,493.017906 348.991216,481.834331 305.274481,448.042665 C325.241364,429.232737 343.566681,408.752215 360.050868,386.824134 C387.245915,383.516508 414.107066,377.880622 440.338719,369.978497 C440.820446,373.431953 441.221885,376.825174 441.563109,380.198317 M461.193488,334.018382 C454.869166,307.332523 446.294494,281.231049 435.561592,255.99437 C446.289797,230.744081 454.857778,204.629101 461.173416,177.930202 C512.216417,198.911955 541.942994,227.985236 541.942994,255.99437 C541.942994,284.003505 512.296705,313.076786 461.153344,334.058539" id="Shape"></path>
        </g>
      </g>
    </g>
  </symbol>
  <!-- Node Icon -->
  <symbol id="node" viewBox="0 0 256 292">
    <defs>
      <linearGradient id="a" x1="68.188%" x2="27.823%" y1="17.487%" y2="89.755%">
        <stop offset="0%" stop-color="#41873F" />
        <stop offset="32.88%" stop-color="#418B3D" />
        <stop offset="63.52%" stop-color="#419637" />
        <stop offset="93.19%" stop-color="#3FA92D" />
        <stop offset="100%" stop-color="#3FAE2A" />
      </linearGradient>
      <linearGradient id="c" x1="43.277%" x2="159.245%" y1="55.169%" y2="-18.306%">
        <stop offset="13.76%" stop-color="#41873F" />
        <stop offset="40.32%" stop-color="#54A044" />
        <stop offset="71.36%" stop-color="#66B848" />
        <stop offset="90.81%" stop-color="#6CC04A" />
      </linearGradient>
      <linearGradient id="f" x1="-4.389%" x2="101.499%" y1="49.997%" y2="49.997%">
        <stop offset="9.192%" stop-color="#6CC04A" />
        <stop offset="28.64%" stop-color="#66B848" />
        <stop offset="59.68%" stop-color="#54A044" />
        <stop offset="86.24%" stop-color="#41873F" />
      </linearGradient>
      <path id="b" d="M134.923 1.832c-4.344-2.443-9.502-2.443-13.846 0L6.787 67.801C2.443 70.244 0 74.859 0 79.745v132.208c0 4.887 2.715 9.502 6.787 11.945l114.29 65.968c4.344 2.444 9.502 2.444 13.846 0l114.29-65.968c4.344-2.443 6.787-7.058 6.787-11.945V79.745c0-4.886-2.715-9.501-6.787-11.944L134.923 1.832Z" />
      <path id="e" d="M134.923 1.832c-4.344-2.443-9.502-2.443-13.846 0L6.787 67.801C2.443 70.244 0 74.859 0 79.745v132.208c0 4.887 2.715 9.502 6.787 11.945l114.29 65.968c4.344 2.444 9.502 2.444 13.846 0l114.29-65.968c4.344-2.443 6.787-7.058 6.787-11.945V79.745c0-4.886-2.715-9.501-6.787-11.944L134.923 1.832Z" />
    </defs>
    <path fill="url(#a)" d="M134.923 1.832c-4.344-2.443-9.502-2.443-13.846 0L6.787 67.801C2.443 70.244 0 74.859 0 79.745v132.208c0 4.887 2.715 9.502 6.787 11.945l114.29 65.968c4.344 2.444 9.502 2.444 13.846 0l114.29-65.968c4.344-2.443 6.787-7.058 6.787-11.945V79.745c0-4.886-2.715-9.501-6.787-11.944L134.923 1.832Z" />
    <mask id="d" fill="#fff">
      <use xlink:href="#b" />
    </mask>
    <path fill="url(#c)" d="M249.485 67.8 134.65 1.833c-1.086-.542-2.443-1.085-3.529-1.357L2.443 220.912c1.086 1.357 2.444 2.443 3.8 3.258l114.834 65.968c3.258 1.9 7.059 2.443 10.588 1.357L252.47 70.515c-.815-1.086-1.9-1.9-2.986-2.714Z" mask="url(#d)" />
    <mask id="g" fill="#fff">
      <use xlink:href="#e" />
    </mask>
    <path fill="url(#f)" d="M249.756 223.898c3.258-1.9 5.701-5.158 6.787-8.687L130.579.204c-3.258-.543-6.787-.272-9.773 1.628L6.786 67.53l122.979 224.238c1.628-.272 3.529-.815 5.158-1.63l114.833-66.239Z" mask="url(#g)" />
  </symbol>
  <!-- TypeScript Icon -->
  <symbol id="typescript" viewBox="0 0 256 256">
    <rect width="256" height="256" rx="20" fill="#3178C6" />
    <path d="M150.518 200.475v27.62c4.492 2.302 9.805 4.028 15.938 5.179 6.133 1.151 12.597 1.726 19.393 1.726 6.622 0 12.914-.633 18.874-1.899 5.96-1.266 11.187-3.352 15.678-6.257 4.492-2.906 8.048-6.704 10.669-11.394 2.62-4.689 3.93-10.486 3.93-17.391 0-5.006-.749-9.394-2.246-13.163a30.748 30.748 0 0 0-6.479-10.055c-2.821-2.935-6.205-5.567-10.149-7.898-3.945-2.33-8.394-4.531-13.347-6.602-3.628-1.497-6.881-2.949-9.761-4.359-2.879-1.41-5.327-2.848-7.342-4.316-2.016-1.467-3.571-3.021-4.665-4.661-1.094-1.64-1.641-3.495-1.641-5.567 0-1.899.489-3.61 1.468-5.135s2.362-2.834 4.147-3.927c1.785-1.094 3.973-1.942 6.565-2.547 2.591-.604 5.471-.906 8.638-.906 2.304 0 4.737.173 7.299.518 2.563.345 5.14.877 7.732 1.597a53.669 53.669 0 0 1 7.558 2.719 41.7 41.7 0 0 1 6.781 3.797v-25.807c-4.204-1.611-8.797-2.805-13.778-3.582-4.981-.777-10.697-1.165-17.147-1.165-6.565 0-12.784.705-18.658 2.115-5.874 1.409-11.043 3.61-15.506 6.602-4.463 2.993-7.99 6.805-10.582 11.437-2.591 4.632-3.887 10.17-3.887 16.615 0 8.228 2.375 15.248 7.127 21.06 4.751 5.811 11.963 10.731 21.638 14.759a291.458 291.458 0 0 1 10.625 4.575c3.283 1.496 6.119 3.049 8.509 4.66 2.39 1.611 4.276 3.366 5.658 5.265 1.382 1.899 2.073 4.057 2.073 6.474a9.901 9.901 0 0 1-1.296 4.963c-.863 1.524-2.174 2.848-3.93 3.97-1.756 1.122-3.945 1.999-6.565 2.632-2.62.633-5.687.95-9.2.95-5.989 0-11.92-1.05-17.794-3.151-5.875-2.1-11.317-5.25-16.327-9.451Zm-46.036-68.733H140V109H41v22.742h35.345V233h28.137V131.742Z" fill="#FFF" />
  </symbol>

  <symbol id="html" viewBox="0 0 452 520">
    <path fill="#e34f26" d="M41 460L0 0h451l-41 460-185 52" />
    <path fill="#ef652a" d="M226 472l149-41 35-394H226" />
    <path fill="#ecedee" d="M226 208h-75l-5-58h80V94H84l15 171h127zm0 147l-64-17-4-45h-56l7 89 117 32z" />
    <path fill="#fff" d="M226 265h69l-7 73-62 17v59l115-32 16-174H226zm0-171v56h136l5-56z" />
  </symbol>

  <!-- CSS Icon -->
  <symbol id="css" viewBox="0 0 1000 1000">
    <path fill="#639" d="M0 0h840a160 160 0 0 1 160 160v680a160 160 0 0 1-160 160H160A160 160 0 0 1 0 840V0Z" />
    <path fill="#fff" d="M816.54 919.9c-32.39 0-57.16-9.42-74.5-28.35-17.15-19.03-26.08-46.18-26.88-81.64h69.8c.4 31.36 11.42 47.08 33.08 47.08 11.04 0 18.86-3.5 23.37-10.42 4.41-6.9 6.72-17.93 6.72-33.05 0-12.02-3.01-22.04-8.83-29.95a73.2 73.2 0 0 0-29.48-21.14L783.95 750c-23.06-11.02-39.81-24.04-50.14-39.27-10.03-15.13-15.04-36.36-15.04-63.5 0-30.36 8.83-55 26.37-73.94 18.05-18.93 42.62-28.34 74-28.34 30.3 0 53.76 9.31 70.3 27.84 16.85 18.64 25.67 45.28 26.38 80.14h-67.19c.4-11.4-1.9-22.72-6.72-33.06-3.8-7.6-11.23-11.41-22.26-11.41-19.65 0-29.48 11.71-29.48 35.05 0 11.83 2.4 21.04 7.22 28.05A65.18 65.18 0 0 0 822.76 689l24.77 10.92c25.57 11.72 44.02 26.05 55.35 43.38 11.43 17.23 17.05 40.27 17.05 69.12 0 34.56-9.03 61.1-27.38 79.63-18.25 18.53-43.62 27.85-76 27.85Zm-225.42 0c-32.4 0-57.16-9.42-74.51-28.35-17.15-19.03-26.07-46.18-26.87-81.64h69.79c.4 31.36 11.43 47.08 33.1 47.08 11.02 0 18.84-3.5 23.25-10.42 4.52-6.9 6.72-17.93 6.72-33.05 0-12.02-2.9-22.04-8.72-29.95a73.2 73.2 0 0 0-29.48-21.14L558.53 750c-23.07-11.02-39.81-24.04-50.14-39.27-10.03-15.13-15.04-36.36-15.04-63.5 0-30.36 8.82-55 26.37-73.94 18.05-18.93 42.62-28.34 74-28.34 30.29 0 53.75 9.31 70.2 27.84 17.05 18.64 25.77 45.28 26.47 80.14h-67.18c.4-11.4-1.9-22.72-6.72-33.06-3.81-7.6-11.23-11.41-22.26-11.41-19.66 0-29.49 11.71-29.49 35.05 0 11.83 2.41 21.04 7.22 28.05A65.18 65.18 0 0 0 597.33 689l24.77 10.92c25.57 11.72 44.02 26.05 55.36 43.38 11.33 17.23 17.04 40.27 17.04 69.12 0 34.56-9.12 61.1-27.37 79.63-18.25 18.53-43.62 27.85-76.01 27.85Zm-234.75 0c-31.7 0-56.86-8.62-75.51-25.85-18.65-17.12-27.88-42.87-27.88-76.93V648.83c0-33.85 9.83-59.5 29.48-77.13 19.96-17.43 46.13-26.24 78.52-26.24 31.39 0 56.15 9.01 74.5 26.84 18.56 17.93 27.88 44.58 27.88 80.14v13.32h-73.9v-12.92c0-13.72-3.01-23.84-8.83-30.45a26.46 26.46 0 0 0-21.66-10.32c-12.03 0-20.55 4.1-25.37 12.42a79.04 79.04 0 0 0-6.72 36.66v146.26c0 30.55 10.74 46.08 32.1 46.38 10.02 0 17.54-3.61 22.76-10.82a51.74 51.74 0 0 0 7.72-30.46V801.6h73.9v11.42c0 23.74-4.61 43.57-13.94 59.4a88.8 88.8 0 0 1-38.2 35.66 121.46 121.46 0 0 1-54.85 11.82Z" />
  </symbol>
  <!-- Instagram Icon -->
  <symbol id="instagram" viewBox="0 0 256 256">
    <path fill="#fff" d="M128 23.064c34.177 0 38.225.13 51.722.745 12.48.57 19.258 2.655 23.769 4.408 5.974 2.322 10.238 5.096 14.717 9.575 4.48 4.479 7.253 8.743 9.575 14.717 1.753 4.511 3.838 11.289 4.408 23.768.615 13.498.745 17.546.745 51.723 0 34.178-.13 38.226-.745 51.723-.57 12.48-2.655 19.257-4.408 23.768-2.322 5.974-5.096 10.239-9.575 14.718-4.479 4.479-8.743 7.253-14.717 9.574-4.511 1.753-11.289 3.839-23.769 4.408-13.495.616-17.543.746-51.722.746-34.18 0-38.228-.13-51.723-.746-12.48-.57-19.257-2.655-23.768-4.408-5.974-2.321-10.239-5.095-14.718-9.574-4.479-4.48-7.253-8.744-9.574-14.718-1.753-4.51-3.839-11.288-4.408-23.768-.616-13.497-.746-17.545-.746-51.723 0-34.177.13-38.225.746-51.722.57-12.48 2.655-19.258 4.408-23.769 2.321-5.974 5.095-10.238 9.574-14.717 4.48-4.48 8.744-7.253 14.718-9.575 4.51-1.753 11.289-3.838 23.768-4.408 13.497-.615 17.545-.745 51.723-.745M128 0C93.237 0 88.878.147 75.226.77c-13.625.622-22.93 2.786-31.071 5.95-8.418 3.271-15.556 7.648-22.672 14.764C14.367 28.6 9.991 35.738 6.72 44.155 3.555 52.297 1.392 61.602.77 75.226.147 88.878 0 93.237 0 128c0 34.763.147 39.122.77 52.774.622 13.625 2.785 22.93 5.95 31.071 3.27 8.417 7.647 15.556 14.763 22.672 7.116 7.116 14.254 11.492 22.672 14.763 8.142 3.165 17.446 5.328 31.07 5.95 13.653.623 18.012.77 52.775.77s39.122-.147 52.774-.77c13.624-.622 22.929-2.785 31.07-5.95 8.418-3.27 15.556-7.647 22.672-14.763 7.116-7.116 11.493-14.254 14.764-22.672 3.164-8.142 5.328-17.446 5.95-31.07.623-13.653.77-18.012.77-52.775s-.147-39.122-.77-52.774c-.622-13.624-2.786-22.929-5.95-31.07-3.271-8.418-7.648-15.556-14.764-22.672C227.4 14.368 220.262 9.99 211.845 6.72c-8.142-3.164-17.447-5.328-31.071-5.95C167.122.147 162.763 0 128 0Zm0 62.27C91.698 62.27 62.27 91.7 62.27 128c0 36.302 29.428 65.73 65.73 65.73 36.301 0 65.73-29.428 65.73-65.73 0-36.301-29.429-65.73-65.73-65.73Zm0 108.397c-23.564 0-42.667-19.103-42.667-42.667S104.436 85.333 128 85.333s42.667 19.103 42.667 42.667-19.103 42.667-42.667 42.667Zm83.686-110.994c0 8.484-6.876 15.36-15.36 15.36-8.483 0-15.36-6.876-15.36-15.36 0-8.483 6.877-15.36 15.36-15.36 8.484 0 15.36 6.877 15.36 15.36Z" />
  </symbol>
  <!-- X (Twitter) Icon -->
  <symbol id="x" viewBox="0 0 1200 1227">
    <path fill="#fff" d="M714.163 519.284 1160.89 0h-105.86L667.137 450.887 357.328 0H0l468.492 681.821L0 1226.37h105.866l409.625-476.152 327.181 476.152H1200L714.137 519.284h.026ZM569.165 687.828l-47.468-67.894-377.686-540.24h162.604l304.797 435.991 47.468 67.894 396.2 566.721H892.476L569.165 687.854v-.026Z" />
  </symbol>
  <!-- YouTube Icon -->
  <symbol id="youtube" viewBox="0 0 256 180">
    <path d="M250.346 28.075A32.18 32.18 0 0 0 227.69 5.418C207.824 0 127.87 0 127.87 0S47.912.164 28.046 5.582A32.18 32.18 0 0 0 5.39 28.24c-6.009 35.298-8.34 89.084.165 122.97a32.18 32.18 0 0 0 22.656 22.657c19.866 5.418 99.822 5.418 99.822 5.418s79.955 0 99.82-5.418a32.18 32.18 0 0 0 22.657-22.657c6.338-35.348 8.291-89.1-.164-123.134Z" fill="red" />
    <path fill="#FFF" d="m102.421 128.06 66.328-38.418-66.328-38.418z" />
  </symbol>
  <!-- LinkedIn Icon -->
  <symbol id="linkedin" viewBox="0 0 256 256">
    <path d="M218.123 218.127h-37.931v-59.403c0-14.165-.253-32.4-19.728-32.4-19.756 0-22.779 15.434-22.779 31.369v60.43h-37.93V95.967h36.413v16.694h.51a39.907 39.907 0 0 1 35.928-19.733c38.445 0 45.533 25.288 45.533 58.186l-.016 67.013ZM56.955 79.27c-12.157.002-22.014-9.852-22.016-22.009-.002-12.157 9.851-22.014 22.008-22.016 12.157-.003 22.014 9.851 22.016 22.008A22.013 22.013 0 0 1 56.955 79.27m18.966 138.858H37.95V95.967h37.97v122.16ZM237.033.018H18.89C8.58-.098.125 8.161-.001 18.471v219.053c.122 10.315 8.576 18.582 18.89 18.474h218.144c10.336.128 18.823-8.139 18.966-18.474V18.454c-.147-10.33-8.635-18.588-18.966-18.453" fill="#0A66C2" />
  </symbol>
  <!-- GitHub Icon -->
  <symbol id="github" viewBox="0 0 1024 1024">
    <path fill-rule="evenodd" clip-rule="evenodd" d="M8 0C3.58 0 0 3.58 0 8C0 11.54 2.29 14.53 5.47 15.59C5.87 15.66 6.02 15.42 6.02 15.21C6.02 15.02 6.01 14.39 6.01 13.72C4 14.09 3.48 13.23 3.32 12.78C3.23 12.55 2.84 11.84 2.5 11.65C2.22 11.5 1.82 11.13 2.49 11.12C3.12 11.11 3.57 11.7 3.72 11.94C4.44 13.15 5.59 12.81 6.05 12.6C6.12 12.08 6.33 11.73 6.56 11.53C4.78 11.33 2.92 10.64 2.92 7.58C2.92 6.71 3.23 5.99 3.74 5.43C3.66 5.23 3.38 4.41 3.82 3.31C3.82 3.31 4.49 3.1 6.02 4.13C6.66 3.95 7.34 3.86 8.02 3.86C8.7 3.86 9.38 3.95 10.02 4.13C11.55 3.09 12.22 3.31 12.22 3.31C12.66 4.41 12.38 5.23 12.3 5.43C12.81 5.99 13.12 6.7 13.12 7.58C13.12 10.65 11.25 11.33 9.47 11.53C9.76 11.78 10.01 12.26 10.01 13.01C10.01 14.08 10 14.94 10 15.21C10 15.42 10.15 15.67 10.55 15.59C13.71 14.53 16 11.53 16 8C16 3.58 12.42 0 8 0Z" transform="scale(64)" fill="#fff" />
  </symbol>
  <!-- Strava Icon -->
  <symbol id="strava" width="512" height="512" style="enable-background:new 0 0 512 512">
    <path d="M226.172 26.001 90.149 288.345h80.141l55.882-104.309 55.433 104.309h79.511z" style="fill:#f50" />
    <path d="m361.116 288.345-39.441 79.241-40.07-79.241h-60.734l100.804 197.654 100.176-197.654z" style="fill:#ffaf8a" />
  </symbol>
  <!-- Twitch Icon -->
  <symbol id="twitch" viewBox="0 0 2400 2800">
    <path fill="#fff" d="m2200 1300-400 400h-400l-350 350v-350H600V200h1600z" />
    <g fill="#9146ff">
      <path d="M500 0 0 500v1800h600v500l500-500h400l900-900V0H500zm1700 1300-400 400h-400l-350 350v-350H600V200h1600v1100z" />
      <path d="M1700 550h200v600h-200zm-550 0h200v600h-200z" />
    </g>
  </symbol>
  <!-- Verified Icon -->
  <symbol id="verified" viewBox="0 0 20 20">
    <path fill-rule="evenodd" d="M10 18a8 8 0 100-16 8 8 0 000 16zm3.707-8.707a1 1 0 00-1.414-1.414L9 11.172l-1.293-1.293a1 1 0 00-1.414 1.414l2 2a1 1 0 001.414 0l4-4z" clip-rule="evenodd" />
  </symbol>

  <!-- Mail icom -->
  <symbol id="mail" viewBox="0 0 24 24" fill="none" stroke="currentColor" stroke-width="2" stroke-linecap="round" stroke-linejoin="round">
    <path stroke="none" d="M0 0h24v24H0z" fill="none" />
    <path d="M3 7a2 2 0 0 1 2 -2h14a2 2 0 0 1 2 2v10a2 2 0 0 1 -2 2h-14a2 2 0 0 1 -2 -2v-10z" />
    <path d="M3 7l9 6l9 -6" />
  </symbol>
  <!-- Arrow Down Icon -->
  <symbol id="arrow-down" viewBox="0 0 24 24" fill="currentColor" stroke="currentColor" stroke-width="2" stroke-linecap="round" stroke-linejoin="round">
    <path stroke="none" d="M0 0h24v24H0z" fill="none" />
    <path d="M12 5l0 14" />
    <path d="M18 13l-6 6" />
    <path d="M6 13l6 6" />
  </symbol>
  <!-- Code Icon -->
  <symbol id="code" viewBox="0 0 24 24" fill="none" stroke="currentColor" stroke-width="2" stroke-linecap="round" stroke-linejoin="round">
    <path stroke="none" d="M0 0h24v24H0z" fill="none" />
    <path d="M7 8l-4 4l4 4" />
    <path d="M17 8l4 4l-4 4" />
    <path d="M14 4l-4 16" />
  </symbol>
  <!-- Icono de JavaScript -->
  <symbol id="javascript" viewBox="0 0 48 48">
    <path fill="#f7df1e" d="M6,42V6h36v36H6z"></path>
    <path fill="#000001" d="M29.538,32.947c0.692,1.124,1.444,2.201,3.037,2.201c1.338,0,2.04-0.665,2.04-1.585 c0-1.101-0.726-1.492-2.198-2.133l-0.807-0.344c-2.329-0.988-3.878-2.226-3.878-4.841c0-2.41,1.845-4.244,4.728-4.244 c2.053,0,3.528,0.711,4.592,2.573l-2.514,1.607c-0.553-0.988-1.151-1.377-2.078-1.377c-0.946,0-1.545,0.597-1.545,1.377 c0,0.964,0.6,1.354,1.985,1.951l0.807,0.344C36.452,29.645,38,30.839,38,33.523C38,36.415,35.716,38,32.65,38 c-2.999,0-4.702-1.505-5.65-3.368L29.538,32.947z M17.952,33.029c0.506,0.906,1.275,1.603,2.381,1.603 c1.058,0,1.667-0.418,1.667-2.043V22h3.333v11.101c0,3.367-1.953,4.899-4.805,4.899c-2.577,0-4.437-1.746-5.195-3.368 L17.952,33.029z"></path>
  </symbol>

  <!-- Icono de Python -->
  <symbol id="python" viewBox="0 0 48 48">
    <path fill="#0277BD" d="M24.047,5c-1.555,0.005-2.633,0.142-3.936,0.367c-3.848,0.67-4.549,2.077-4.549,4.67V14h9v2H15.22h-4.35c-2.636,0-4.943,1.242-5.674,4.219c-0.826,3.417-0.863,5.557,0,9.125C5.851,32.005,7.294,34,9.931,34h3.632v-5.104c0-2.966,2.686-5.896,5.764-5.896h7.236c2.523,0,5-1.862,5-4.377v-8.586c0-2.439-1.759-4.263-4.218-4.672C27.406,5.359,25.589,4.994,24.047,5z M19.063,9c0.821,0,1.5,0.677,1.5,1.502c0,0.833-0.679,1.498-1.5,1.498c-0.837,0-1.5-0.664-1.5-1.498C17.563,9.68,18.226,9,19.063,9z"></path>
    <path fill="#FFC107" d="M23.078,43c1.555-0.005,2.633-0.142,3.936-0.367c3.848-0.67,4.549-2.077,4.549-4.67V34h-9v-2h9.343h4.35c2.636,0,4.943-1.242,5.674-4.219c0.826-3.417,0.863-5.557,0-9.125C41.274,15.995,39.831,14,37.194,14h-3.632v5.104c0,2.966-2.686,5.896-5.764,5.896h-7.236c-2.523,0-5,1.862-5,4.377v8.586c0,2.439,1.759,4.263,4.218,4.672C19.719,42.641,21.536,43.006,23.078,43z M28.063,39c-0.821,0-1.5-0.677-1.5-1.502c0-0.833,0.679-1.498,1.5-1.498c0.837,0,1.5,0.664,1.5,1.498C29.563,38.32,28.899,39,28.063,39z"></path>
  </symbol>

  <!-- Icono de HTML5 -->
  <symbol id="html5" viewBox="0 0 48 48">
    <path fill="#E65100" d="M41,5H7l3,34l14,4l14-4L41,5L41,5z"></path>
    <path fill="#FF6D00" d="M24 8L24 39.9 35.2 36.7 37.7 8z"></path>
    <path fill="#FFF" d="M24,25v-4h8.6l-0.7,11.5L24,35.1v-4.2l4.1-1.4l0.3-4.5H24z M32.9,17l0.3-4H24v4H32.9z"></path>
    <path fill="#EEE" d="M24,30.9v4.2l-7.9-2.6L15.7,27h4l0.2,2.5L24,30.9z M19.1,17H24v-4h-9.1l0.7,12H24v-4h-4.6L19.1,17z"></path>
  </symbol>

  <!-- Icono de Tailwind CSS -->
  <symbol id="tailwindcss" viewBox="0 0 48 48">
    <path fill="#00acc1" d="M24,9.604c-6.4,0-10.4,3.199-12,9.597c2.4-3.199,5.2-4.398,8.4-3.599 c1.826,0.456,3.131,1.781,4.576,3.247C27.328,21.236,30.051,24,36,24c6.4,0,10.4-3.199,12-9.598c-2.4,3.199-5.2,4.399-8.4,3.6 c-1.825-0.456-3.13-1.781-4.575-3.247C32.672,12.367,29.948,9.604,24,9.604L24,9.604z M12,24c-6.4,0-10.4,3.199-12,9.598 c2.4-3.199,5.2-4.399,8.4-3.599c1.825,0.457,3.13,1.781,4.575,3.246c2.353,2.388,5.077,5.152,11.025,5.152 c6.4,0,10.4-3.199,12-9.598c-2.4,3.199-5.2,4.399-8.4,3.599c-1.826-0.456-3.131-1.781-4.576-3.246C20.672,26.764,17.949,24,12,24 L12,24z"></path>
  </symbol>

  <!-- Icono de Git -->
  <symbol id="git" viewBox="0 0 48 48">
    <path fill="#F4511E" d="M42.2,22.1L25.9,5.8C25.4,5.3,24.7,5,24,5c0,0,0,0,0,0c-0.7,0-1.4,0.3-1.9,0.8l-3.5,3.5l4.1,4.1c0.4-0.2,0.8-0.3,1.3-0.3c1.7,0,3,1.3,3,3c0,0.5-0.1,0.9-0.3,1.3l4,4c0.4-0.2,0.8-0.3,1.3-0.3c1.7,0,3,1.3,3,3s-1.3,3-3,3c-1.7,0-3-1.3-3-3c0-0.5,0.1-0.9,0.3-1.3l-4-4c-0.1,0-0.2,0.1-0.3,0.1v10.4c1.2,0.4,2,1.5,2,2.8c0,1.7-1.3,3-3,3s-3-1.3-3-3c0-1.3,0.8-2.4,2-2.8V18.8c-1.2-0.4-2-1.5-2-2.8c0-0.5,0.1-0.9,0.3-1.3l-4.1-4.1L5.8,22.1C5.3,22.6,5,23.3,5,24c0,0.7,0.3,1.4,0.8,1.9l16.3,16.3c0,0,0,0,0,0c0.5,0.5,1.2,0.8,1.9,0.8s1.4-0.3,1.9-0.8l16.3-16.3c0.5-0.5,0.8-1.2,0.8-1.9C43,23.3,42.7,22.6,42.2,22.1z"></path>
  </symbol>
  <!-- Icon de Astro -->
  <symbol id="astro" viewBox="45.15333333333334 4.083333333333334 197.69 280.67333333333335">
    <g fill="none" stroke-width="2">
      <path d="M219.46 117c-1.46.82-.27-3.13-1.7-1.57-.72.79-.2 2.52.42 3.21a1.09 1.07-62.3 0 1 .25.84q-.14 1.21.63 2a1.28.94-73.7 0 1 .3.83l.01 1.67a.68.52 84.7 0 1-.4.63c-2.91.69-2.49-2.42-4.47-3.66q-.38-.24-.63-.7c-1.46-2.72-3.63 1.39-5.82-1.67a.61.58-28.8 0 0-.72-.19q-1.68.71-3.02-.52a1.42 1.36-21.1 0 0-.86-.36q-1.41-.08-2.27-1.31a.82.67 64.4 0 0-.75-.35q-1.21.24-1.92 1.14a.67.61-59.6 0 1-.74.23q-2.49-1.01-4.2-3.05a1.13.86 64.1 0 0-.81-.41q-1.29.04-2.06 1.01a.4.39 41.3 0 1-.59.03l-1.92-1.91a1.13.82-22.7 0 0-.89-.21q-2.59.45-5.12-.57a1.51 1.32-39.9 0 0-.93-.02q-3.55 1.08-5.05-2.44a1.5.96 82.7 0 0-.6-.72q-.9-.46-1.98-.18a.79.74-26.2 0 1-.78-.24q-2.16-2.56-5.17-.98a.63.57-31.7 0 1-.76-.14l-.91-1.23a.61.57-29.7 0 0-.71-.17c-2.54 1.1-4.21-7.79-4.75-9.5q-.16-.51-.36-.02c-.98 2.36 1.08 3.2.28 5.28" stroke="#0b021e"/>
      <path d="M130.71 90.98q-1.92 1.62-2.62 4.06-.05.19-.01 0 .51-2.72-1.2-4.46a1.07.86-23.3 0 0-.85-.24q-2.29.38-2.72-1.53-.09-.42-.39-.11-1.62 1.74-3.39-.09a.43.4-45.5 0 0-.6.03q-.44.48-1.12.16a.8.76 39.3 0 0-.8.06q-1.07.76-2.23.3a1.53.96 76.3 0 1-.68-.66q-1.8-3.27-5.58-3.48a1.61 1.05 56.9 0 1-.84-.37q-.6-.49-1.51-.59a.63.59 87.4 0 1-.54-.52q-.2-1.22-1.33-1.5a.87.71-60.5 0 0-.79.31q-.92 1.15-2.3 1.81a.65.57 57.9 0 1-.74-.22l-.88-1.15a1.12.92-15 0 0-.81-.37q-2.94-.02-5.43-1.44c-.76-.43-.83-1.37-2.07-1.15a1.24.95-26.5 0 1-.87-.17q-1.6-1.14-3.23-.21a1.04.72-40.9 0 1-.89.1l-1.67-.91a.54.5 30.9 0 0-.67.14q-.65.95-1.67 1.03a.4.35-84.3 0 1-.35-.5l2.22-9.01q.13-.53-.35-.27l-.8.43" stroke="#0c021e"/>
      <path d="M122 210.54l-1.02.54a.54.53 62.9 0 0-.22.7c1.25 2.65 3.13 3.12 5.74 4.06 3.26 1.17 5.92 3.03 9.17 4.27 1.37.52 2.29 1.7 3.83 2.25 5.06 1.78 9.78 4.43 12.32 5.55q10.07 4.47 15.64 7.49c1.4.77 2.89.54 4.32 1.44 2.13 1.36 6.37 4.94 8.77 2.8a.64.29 31.4 0 1 .59.07l.49.25" stroke="#ff5a04"/>
      <path d="M188.29 231.25q-.38-.99 0-2.03a.47.46-70.6 0 0-.28-.61c-1.2-.39-2.1-1.17-3.31-1.4-4-.75-7.53-3.46-10.24-4.66Q163.77 217.79 161 216q-1.87-1.19-3.64-1.44c-2.46-.35-4.22-1.03-6.36-1.27" stroke="#ff510b"/>
    </g>
    <path d="M219.46 117c-1.46.82-.27-3.13-1.7-1.57-.72.79-.2 2.52.42 3.21a1.09 1.07-62.3 0 1 .25.84q-.14 1.21.63 2a1.28.94-73.7 0 1 .3.83l.01 1.67a.68.52 84.7 0 1-.4.63c-2.91.69-2.49-2.42-4.47-3.66q-.38-.24-.63-.7c-1.46-2.72-3.63 1.39-5.82-1.67a.61.58-28.8 0 0-.72-.19q-1.68.71-3.02-.52a1.42 1.36-21.1 0 0-.86-.36q-1.41-.08-2.27-1.31a.82.67 64.4 0 0-.75-.35q-1.21.24-1.92 1.14a.67.61-59.6 0 1-.74.23q-2.49-1.01-4.2-3.05a1.13.86 64.1 0 0-.81-.41q-1.29.04-2.06 1.01a.4.39 41.3 0 1-.59.03l-1.92-1.91a1.13.82-22.7 0 0-.89-.21q-2.59.45-5.12-.57a1.51 1.32-39.9 0 0-.93-.02q-3.55 1.08-5.05-2.44a1.5.96 82.7 0 0-.6-.72q-.9-.46-1.98-.18a.79.74-26.2 0 1-.78-.24q-2.16-2.56-5.17-.98a.63.57-31.7 0 1-.76-.14l-.91-1.23a.61.57-29.7 0 0-.71-.17c-2.54 1.1-4.21-7.79-4.75-9.5q-.16-.51-.36-.02c-.98 2.36 1.08 3.2.28 5.28q-5.91-19.23-11.52-38.54c-1.05-3.61-2.96-7.95-7.29-5.06q-1.55 1.03-2.26 3.49-4.25 14.71-8.68 29.34-1.92 1.62-2.62 4.06-.05.19-.01 0 .51-2.72-1.2-4.46a1.07.86-23.3 0 0-.85-.24q-2.29.38-2.72-1.53-.09-.42-.39-.11-1.62 1.74-3.39-.09a.43.4-45.5 0 0-.6.03q-.44.48-1.12.16a.8.76 39.3 0 0-.8.06q-1.07.76-2.23.3a1.53.96 76.3 0 1-.68-.66q-1.8-3.27-5.58-3.48a1.61 1.05 56.9 0 1-.84-.37q-.6-.49-1.51-.59a.63.59 87.4 0 1-.54-.52q-.2-1.22-1.33-1.5a.87.71-60.5 0 0-.79.31q-.92 1.15-2.3 1.81a.65.57 57.9 0 1-.74-.22l-.88-1.15a1.12.92-15 0 0-.81-.37q-2.94-.02-5.43-1.44c-.76-.43-.83-1.37-2.07-1.15a1.24.95-26.5 0 1-.87-.17q-1.6-1.14-3.23-.21a1.04.72-40.9 0 1-.89.1l-1.67-.91a.54.5 30.9 0 0-.67.14q-.65.95-1.67 1.03a.4.35-84.3 0 1-.35-.5l2.22-9.01q.13-.53-.35-.27l-.8.43Q96 26.8 99.45 16.98c2.92-8.29 9.77-12.24 18.39-12.45q23.86-.59 47.71-.16c14.24.26 20.26 2.97 24.4 16.36q14.89 48.09 29.51 96.27z" fill="#07011a"/>
    <path d="M130.71 90.98l-23.78 80.97a1.25 1.25-86.6 0 1-.99.88q-31.46 5.55-60.19 20.21-.67.35-.45-.37L83 70.46l.8-.43q.48-.26.35.27l-2.22 9.01a.4.35-84.3 0 0 .35.5q1.02-.08 1.67-1.03a.54.5 30.9 0 1 .67-.14l1.67.91a1.04.72-40.9 0 0 .89-.1q1.63-.93 3.23.21a1.24.95-26.5 0 0 .87.17c1.24-.22 1.31.72 2.07 1.15q2.49 1.42 5.43 1.44a1.12.92-15 0 1 .81.37l.88 1.15a.65.57 57.9 0 0 .74.22q1.38-.66 2.3-1.81a.87.71-60.5 0 1 .79-.31q1.13.28 1.33 1.5a.63.59 87.4 0 0 .54.52q.91.1 1.51.59a1.61 1.05 56.9 0 0 .84.37q3.78.21 5.58 3.48a1.53.96 76.3 0 0 .68.66q1.16.46 2.23-.3a.8.76 39.3 0 1 .8-.06q.68.32 1.12-.16a.43.4-45.5 0 1 .6-.03q1.77 1.83 3.39.09.3-.31.39.11.43 1.91 2.72 1.53a1.07.86-23.3 0 1 .85.24q1.71 1.74 1.2 4.46-.04.19.01 0 .7-2.44 2.62-4.06z" fill="#100322"/>
    <path d="M219.46 117l23.25 75.78q.2.65-.41.34-28.56-14.62-60.16-20.29a1.01 1 86.5 0 1-.78-.7l-20.9-70.38c.8-2.08-1.26-2.92-.28-5.28q.2-.49.36.02c.54 1.71 2.21 10.6 4.75 9.5a.61.57-29.7 0 1 .71.17l.91 1.23a.63.57-31.7 0 0 .76.14q3.01-1.58 5.17.98a.79.74-26.2 0 0 .78.24q1.08-.28 1.98.18a1.5.96 82.7 0 1 .6.72q1.5 3.52 5.05 2.44a1.51 1.32-39.9 0 1 .93.02q2.53 1.02 5.12.57a1.13.82-22.7 0 1 .89.21l1.92 1.91a.4.39 41.3 0 0 .59-.03q.77-.97 2.06-1.01a1.13.86 64.1 0 1 .81.41q1.71 2.04 4.2 3.05a.67.61-59.6 0 0 .74-.23q.71-.9 1.92-1.14a.82.67 64.4 0 1 .75.35q.86 1.23 2.27 1.31a1.42 1.36-21.1 0 1 .86.36q1.34 1.23 3.02.52a.61.58-28.8 0 1 .72.19c2.19 3.06 4.36-1.05 5.82 1.67q.25.46.63.7c1.98 1.24 1.56 4.35 4.47 3.66a.68.52 84.7 0 0 .4-.63l-.01-1.67a1.28.94-73.7 0 0-.3-.83q-.77-.79-.63-2a1.09 1.07-62.3 0 0-.25-.84c-.62-.69-1.14-2.42-.42-3.21 1.43-1.56.24 2.39 1.7 1.57z" fill="#0f0321"/>
    <path d="M122 210.54l-1.02.54a.54.53 62.9 0 0-.22.7c1.25 2.65 3.13 3.12 5.74 4.06 3.26 1.17 5.92 3.03 9.17 4.27 1.37.52 2.29 1.7 3.83 2.25 5.06 1.78 9.78 4.43 12.32 5.55q10.07 4.47 15.64 7.49c1.4.77 2.89.54 4.32 1.44 2.13 1.36 6.37 4.94 8.77 2.8a.64.29 31.4 0 1 .59.07l.49.25q-7.96 6.42-16.56 11.96c-11.86 7.63-16.28 18.13-10.33 32.13q.36.84-.47.44-15.3-7.46-18.84-23.45c-1.84-8.35 1.99-22.91-8.43-26.51-8.51-2.93-17.11 2.4-18.43 11.57q-.16 1.11-.89.26c-11.95-13.83-14.67-31.97-10.12-49.39q.22-.83.71-.12c5.2 7.55 15.16 11.42 23.73 13.69z" fill="#ff5d01"/>
    <path d="M188.29 231.25q-.38-.99 0-2.03a.47.46-70.6 0 0-.28-.61c-1.2-.39-2.1-1.17-3.31-1.4-4-.75-7.53-3.46-10.24-4.66Q163.77 217.79 161 216q-1.87-1.19-3.64-1.44c-2.46-.35-4.22-1.03-6.36-1.27 13.56-.25 29.17-3.26 40.33-11.47a.47.47-26 0 1 .73.25q4.25 15.74-3.77 29.18z" fill="#ff4c0e"/>
    <path d="M122 210.54q14.31 3.36 29 2.75c2.14.24 3.9.92 6.36 1.27q1.77.25 3.64 1.44 2.77 1.79 13.46 6.55c2.71 1.2 6.24 3.91 10.24 4.66 1.21.23 2.11 1.01 3.31 1.4a.47.46-70.6 0 1 .28.61q-.38 1.04 0 2.03-2.77 4.72-6.66 8.71l-.49-.25a.64.29 31.4 0 0-.59-.07c-2.4 2.14-6.64-1.44-8.77-2.8-1.43-.9-2.92-.67-4.32-1.44q-5.57-3.02-15.64-7.49c-2.54-1.12-7.26-3.77-12.32-5.55-1.54-.55-2.46-1.73-3.83-2.25-3.25-1.24-5.91-3.1-9.17-4.27-2.61-.94-4.49-1.41-5.74-4.06a.54.53 62.9 0 1 .22-.7z" fill="#ff5607"/>
  </symbol>
  <!-- Icon de java -->
  <symbol id="java" viewBox="0 0 256 346">
    <path d="M83 267s-14 8 9 11c27 3 41 2 71-3 0 0 8 5 19 9-67 29-153-2-99-17M74 230s-15 11 8 13c29 3 52 3 92-4 0 0 6 5 15 8-82 24-173 2-115-17" fill="#5382A1"></path>
    <path d="M144 166c17 19-4 36-4 36s42-22 22-49c-18-26-32-38 44-82 0 0-119 29-62 95" fill="#E76F00"></path>
    <path d="M233 295s10 8-10 15c-39 12-163 15-197 0-12-5 11-13 18-14l12-2c-14-9-89 19-38 28 138 22 251-10 215-27M89 190s-63 15-22 21c17 2 51 2 83-1 26-2 52-7 52-7l-16 9c-64 16-187 8-151-9 30-14 54-13 54-13M202 253c64-33 34-66 13-61l-7 2s2-3 6-5c41-14 73 43-14 66l2-2" fill="#5382A1"></path>
    <path d="M162 0s36 36-34 91c-56 45-12 70 0 99-32-30-56-56-40-80 23-35 89-53 74-110" fill="#E76F00"></path>
    <path d="M95 345c62 4 158-3 160-32 0 0-4 11-51 20-53 10-119 9-158 2 0 0 8 7 49 10" fill="#5382A1"></path>
  </symbol>
  <!-- icon de angular outline blanco  -->
  <symbol id='angular' viewBox='0 0 24 24' fill='none' stroke='currentColor' stroke-width='2' stroke-linecap='round' stroke-linejoin='round' class='icon icon-tabler icons-tabler-outline icon-tabler-brand-angular'
  ><path stroke='none' d='M0 0h24v24H0z' fill='none'
  ></path><path d='M5.428 17.245l6.076 3.471a1 1 0 0 0 .992 0l6.076 -3.471a1 1 0 0 0 .495 -.734l1.323 -9.704a1 1 0 0 0 -.658 -1.078l-7.4 -2.612a1 1 0 0 0 -.665 0l-7.399 2.613a1 1 0 0 0 -.658 1.078l1.323 9.704a1 1 0 0 0 .495 .734z'
  ></path><path d='M9 15l3 -8l3 8'></path>
  <path d='M10 13h4'></path>
</symbol>
<!-- icon de angular a color -->
<symbol id="angularColor" viewBox="0 0 32 32" fill="none">
  <path d="M16 2L3 7L5 24L16 30L27 24L29 7L16 2Z" fill="#DD0031"/>
  <path d="M16 2V30L27 24L29 7L16 2Z" fill="#C3002F"/>
  <path d="M15.9998 5.09375L7.87305 23.3638H10.9031L12.5368 19.2757H19.4348L21.0685 23.3638H24.0986L15.9998 5.09375ZM18.3736 16.7557H13.626L15.9998 11.0298L18.3736 16.7557Z" fill="white"/>
</symbol>
<!-- Icon de Links  -->
<symbol id='link' viewBox='0 0 24 24' fill='none' stroke='currentColor' stroke-width='2' stroke-linecap='round' stroke-linejoin='round' class='link'
  ><path d='M10 13a5 5 0 0 0 7.54.54l3-3a5 5 0 0 0-7.07-7.07l-1.72 1.71'
  ></path><path d='M14 11a5 5 0 0 0-7.54-.54l-3 3a5 5 0 0 0 7.07 7.07l1.71-1.71'
  ></path>
</symbol>
<!-- Icon de Ionic -->
<symbol id="ionic" viewBox="0 0 512 512">
  <circle cx="256" cy="256" r="208" stroke="currentColor" stroke-width="32" stroke-miterlimit="10" fill="none"/>
  <circle cx="256" cy="256" r="80" fill="currentColor"/>
  <circle cx="416" cy="128" r="40" fill="currentColor" stroke="white" stroke-width="4"/>
  <ellipse cx="320" cy="96" rx="16" ry="8" fill="currentColor" opacity="0.4"/>
</symbol>
<!-- ion de ionic a Color -->
<symbol id="ionicColor" x="0px" y="0px" viewBox="0 0 48 48">
  <circle cx="24" cy="24" r="9" fill="#448aff"></circle>
  <circle cx="37" cy="11" r="4" fill="#448aff"></circle>
  <path fill="#448aff" d="M41.706,14.715c-0.842,1.064-2.034,1.836-3.405,2.139C39.379,19.007,40,21.429,40,24	c0,8.837-7.163,16-16,16S8,32.837,8,24S15.163,8,24,8c2.571,0,4.993,0.621,7.145,1.699c0.303-1.371,1.075-2.564,2.139-3.405	C30.509,4.835,27.354,4,24,4C12.954,4,4,12.954,4,24c0,11.046,8.954,20,20,20s20-8.954,20-20C44,20.646,43.165,17.491,41.706,14.715	z"></path>
</symbol>
<!-- Icon de Vue.js -->
<symbol id="vue" style="enable-background:new 0 0 512 512;" viewBox="0 0 512 512">
  <g id="_x33_67-vuejs">
    <g>
      <polygon points="392.46,59.011 313.5,59.011 256.001,149.983 206.716,59.011 26.001,59.011     256.001,452.989 485.999,59.011   " style="fill:#41B883;"/>
      <polygon points="83.192,91.867 138.433,91.867 256.001,295.378 373.464,91.867 428.705,91.867     256.001,387.787 83.192,91.867   " style="fill:#35495E;"/>
    </g>
  </g>
  <g id="Layer_1"/>

</symbol>
<!-- Icon de MongoDB -->
<symbol id="mongodb" viewBox="0 0 128 128">
  <path fill-rule="evenodd" clip-rule="evenodd" fill="#439934" d="M88.038 42.812c1.605 4.643 2.761 9.383 3.141 14.296.472 6.095.256 12.147-1.029 18.142-.035.165-.109.32-.164.48-.403.001-.814-.049-1.208.012-3.329.523-6.655 1.065-9.981 1.604-3.438.557-6.881 1.092-10.313 1.687-1.216.21-2.721-.041-3.212 1.641-.014.046-.154.054-.235.08l.166-10.051-.169-24.252 1.602-.275c2.62-.429 5.24-.864 7.862-1.281 3.129-.497 6.261-.98 9.392-1.465 1.381-.215 2.764-.412 4.148-.618z"/>
  <path fill-rule="evenodd" clip-rule="evenodd" fill="#45A538" d="M61.729 110.054c-1.69-1.453-3.439-2.842-5.059-4.37-8.717-8.222-15.093-17.899-18.233-29.566-.865-3.211-1.442-6.474-1.627-9.792-.13-2.322-.318-4.665-.154-6.975.437-6.144 1.325-12.229 3.127-18.147l.099-.138c.175.233.427.439.516.702 1.759 5.18 3.505 10.364 5.242 15.551 5.458 16.3 10.909 32.604 16.376 48.9.107.318.384.579.583.866l-.87 2.969z"/>
  <path fill-rule="evenodd" clip-rule="evenodd" fill="#46A037" d="M88.038 42.812c-1.384.206-2.768.403-4.149.616-3.131.485-6.263.968-9.392 1.465-2.622.417-5.242.852-7.862 1.281l-1.602.275-.012-1.045c-.053-.859-.144-1.717-.154-2.576-.069-5.478-.112-10.956-.18-16.434-.042-3.429-.105-6.857-.175-10.285-.043-2.13-.089-4.261-.185-6.388-.052-1.143-.236-2.28-.311-3.423-.042-.657.016-1.319.029-1.979.817 1.583 1.616 3.178 2.456 4.749 1.327 2.484 3.441 4.314 5.344 6.311 7.523 7.892 12.864 17.068 16.193 27.433z"/>
  <path fill-rule="evenodd" clip-rule="evenodd" fill="#409433" d="M65.036 80.753c.081-.026.222-.034.235-.08.491-1.682 1.996-1.431 3.212-1.641 3.432-.594 6.875-1.13 10.313-1.687 3.326-.539 6.652-1.081 9.981-1.604.394-.062.805-.011 1.208-.012-.622 2.22-1.112 4.488-1.901 6.647-.896 2.449-1.98 4.839-3.131 7.182a49.142 49.142 0 01-6.353 9.763c-1.919 2.308-4.058 4.441-6.202 6.548-1.185 1.165-2.582 2.114-3.882 3.161l-.337-.23-1.214-1.038-1.256-2.753a41.402 41.402 0 01-1.394-9.838l.023-.561.171-2.426c.057-.828.133-1.655.168-2.485.129-2.982.241-5.964.359-8.946z"/>
  <path fill-rule="evenodd" clip-rule="evenodd" fill="#4FAA41" d="M65.036 80.753c-.118 2.982-.23 5.964-.357 8.947-.035.83-.111 1.657-.168 2.485l-.765.289c-1.699-5.002-3.399-9.951-5.062-14.913-2.75-8.209-5.467-16.431-8.213-24.642a4498.887 4498.887 0 00-6.7-19.867c-.105-.31-.407-.552-.617-.826l4.896-9.002c.168.292.39.565.496.879a6167.476 6167.476 0 016.768 20.118c2.916 8.73 5.814 17.467 8.728 26.198.116.349.308.671.491 1.062l.67-.78-.167 10.052z"/>
  <path fill-rule="evenodd" clip-rule="evenodd" fill="#4AA73C" d="M43.155 32.227c.21.274.511.516.617.826a4498.887 4498.887 0 016.7 19.867c2.746 8.211 5.463 16.433 8.213 24.642 1.662 4.961 3.362 9.911 5.062 14.913l.765-.289-.171 2.426-.155.559c-.266 2.656-.49 5.318-.814 7.968-.163 1.328-.509 2.632-.772 3.947-.198-.287-.476-.548-.583-.866-5.467-16.297-10.918-32.6-16.376-48.9a3888.972 3888.972 0 00-5.242-15.551c-.089-.263-.34-.469-.516-.702l3.272-8.84z"/>
  <path fill-rule="evenodd" clip-rule="evenodd" fill="#57AE47" d="M65.202 70.702l-.67.78c-.183-.391-.375-.714-.491-1.062-2.913-8.731-5.812-17.468-8.728-26.198a6167.476 6167.476 0 00-6.768-20.118c-.105-.314-.327-.588-.496-.879l6.055-7.965c.191.255.463.482.562.769 1.681 4.921 3.347 9.848 5.003 14.778 1.547 4.604 3.071 9.215 4.636 13.813.105.308.47.526.714.786l.012 1.045c.058 8.082.115 16.167.171 24.251z"/>
  <path fill-rule="evenodd" clip-rule="evenodd" fill="#60B24F" d="M65.021 45.404c-.244-.26-.609-.478-.714-.786-1.565-4.598-3.089-9.209-4.636-13.813-1.656-4.93-3.322-9.856-5.003-14.778-.099-.287-.371-.514-.562-.769 1.969-1.928 3.877-3.925 5.925-5.764 1.821-1.634 3.285-3.386 3.352-5.968.003-.107.059-.214.145-.514l.519 1.306c-.013.661-.072 1.322-.029 1.979.075 1.143.259 2.28.311 3.423.096 2.127.142 4.258.185 6.388.069 3.428.132 6.856.175 10.285.067 5.478.111 10.956.18 16.434.008.861.098 1.718.152 2.577z"/>
  <path fill-rule="evenodd" clip-rule="evenodd" fill="#A9AA88" d="M62.598 107.085c.263-1.315.609-2.62.772-3.947.325-2.649.548-5.312.814-7.968l.066-.01.066.011a41.402 41.402 0 001.394 9.838c-.176.232-.425.439-.518.701-.727 2.05-1.412 4.116-2.143 6.166-.1.28-.378.498-.574.744l-.747-2.566.87-2.969z"/>
  <path fill-rule="evenodd" clip-rule="evenodd" fill="#B6B598" d="M62.476 112.621c.196-.246.475-.464.574-.744.731-2.05 1.417-4.115 2.143-6.166.093-.262.341-.469.518-.701l1.255 2.754c-.248.352-.59.669-.728 1.061l-2.404 7.059c-.099.283-.437.483-.663.722l-.695-3.985z"/>
  <path fill-rule="evenodd" clip-rule="evenodd" fill="#C2C1A7" d="M63.171 116.605c.227-.238.564-.439.663-.722l2.404-7.059c.137-.391.48-.709.728-1.061l1.215 1.037c-.587.58-.913 1.25-.717 2.097l-.369 1.208c-.168.207-.411.387-.494.624-.839 2.403-1.64 4.819-2.485 7.222-.107.305-.404.544-.614.812-.109-1.387-.22-2.771-.331-4.158z"/>
  <path fill-rule="evenodd" clip-rule="evenodd" fill="#CECDB7" d="M63.503 120.763c.209-.269.506-.508.614-.812.845-2.402 1.646-4.818 2.485-7.222.083-.236.325-.417.494-.624l-.509 5.545c-.136.157-.333.294-.398.477-.575 1.614-1.117 3.24-1.694 4.854-.119.333-.347.627-.525.938-.158-.207-.441-.407-.454-.623-.051-.841-.016-1.688-.013-2.533z"/>
  <path fill-rule="evenodd" clip-rule="evenodd" fill="#DBDAC7" d="M63.969 123.919c.178-.312.406-.606.525-.938.578-1.613 1.119-3.239 1.694-4.854.065-.183.263-.319.398-.477l.012 3.64-1.218 3.124-1.411-.495z"/>
  <path fill-rule="evenodd" clip-rule="evenodd" fill="#EBE9DC" d="M65.38 124.415l1.218-3.124.251 3.696-1.469-.572z"/>
  <path fill-rule="evenodd" clip-rule="evenodd" fill="#CECDB7" d="M67.464 110.898c-.196-.847.129-1.518.717-2.097l.337.23-1.054 1.867z"/>
  <path fill-rule="evenodd" clip-rule="evenodd" fill="#4FAA41" d="M64.316 95.172l-.066-.011-.066.01.155-.559-.023.56z"/>
</symbol>
<!-- Icon de Mysql -->
<symbol id="mysql" viewBox="0 0 128 128">
  <path fill="#00618A" d="M116.948 97.807c-6.863-.187-12.104.452-16.585 2.341-1.273.537-3.305.552-3.513 2.147.7.733.809 1.829 1.365 2.731 1.07 1.73 2.876 4.052 4.488 5.268 1.762 1.33 3.577 2.751 5.465 3.902 3.358 2.047 7.107 3.217 10.34 5.268 1.906 1.21 3.799 2.733 5.658 4.097.92.675 1.537 1.724 2.732 2.147v-.194c-.628-.8-.79-1.898-1.366-2.733l-2.537-2.537c-2.48-3.292-5.629-6.184-8.976-8.585-2.669-1.916-8.642-4.504-9.755-7.609l-.195-.195c1.892-.214 4.107-.898 5.854-1.367 2.934-.786 5.556-.583 8.585-1.365l4.097-1.171v-.78c-1.531-1.571-2.623-3.651-4.292-5.073-4.37-3.72-9.138-7.437-14.048-10.537-2.724-1.718-6.089-2.835-8.976-4.292-.971-.491-2.677-.746-3.318-1.562-1.517-1.932-2.342-4.382-3.511-6.633-2.449-4.717-4.854-9.868-7.024-14.831-1.48-3.384-2.447-6.72-4.293-9.756-8.86-14.567-18.396-23.358-33.169-32-3.144-1.838-6.929-2.563-10.929-3.513-2.145-.129-4.292-.26-6.438-.391-1.311-.546-2.673-2.149-3.902-2.927C17.811 4.565 5.257-2.16 1.633 6.682c-2.289 5.581 3.421 11.025 5.462 13.854 1.434 1.982 3.269 4.207 4.293 6.438.674 1.467.79 2.938 1.367 4.489 1.417 3.822 2.652 7.98 4.487 11.511.927 1.788 1.949 3.67 3.122 5.268.718.981 1.951 1.413 2.145 2.927-1.204 1.686-1.273 4.304-1.95 6.44-3.05 9.615-1.899 21.567 2.537 28.683 1.36 2.186 4.567 6.871 8.975 5.073 3.856-1.57 2.995-6.438 4.098-10.732.249-.973.096-1.689.585-2.341v.195l3.513 7.024c2.6 4.187 7.212 8.562 11.122 11.514 2.027 1.531 3.623 4.177 6.244 5.073v-.196h-.195c-.508-.791-1.303-1.119-1.951-1.755-1.527-1.497-3.225-3.358-4.487-5.073-3.556-4.827-6.698-10.11-9.561-15.609-1.368-2.627-2.557-5.523-3.709-8.196-.444-1.03-.438-2.589-1.364-3.122-1.263 1.958-3.122 3.542-4.098 5.854-1.561 3.696-1.762 8.204-2.341 12.878-.342.122-.19.038-.391.194-2.718-.655-3.672-3.452-4.683-5.853-2.554-6.07-3.029-15.842-.781-22.829.582-1.809 3.21-7.501 2.146-9.172-.508-1.666-2.184-2.63-3.121-3.903-1.161-1.574-2.319-3.646-3.124-5.464-2.09-4.731-3.066-10.044-5.267-14.828-1.053-2.287-2.832-4.602-4.293-6.634-1.617-2.253-3.429-3.912-4.683-6.635-.446-.968-1.051-2.518-.391-3.513.21-.671.508-.951 1.171-1.17 1.132-.873 4.284.29 5.462.779 3.129 1.3 5.741 2.538 8.392 4.294 1.271.844 2.559 2.475 4.097 2.927h1.756c2.747.631 5.824.195 8.391.975 4.536 1.378 8.601 3.523 12.292 5.854 11.246 7.102 20.442 17.21 26.732 29.269 1.012 1.942 1.45 3.794 2.341 5.854 1.798 4.153 4.063 8.426 5.852 12.488 1.786 4.052 3.526 8.141 6.05 11.513 1.327 1.772 6.451 2.723 8.781 3.708 1.632.689 4.307 1.409 5.854 2.34 2.953 1.782 5.815 3.903 8.586 5.855 1.383.975 5.64 3.116 5.852 4.879zM29.729 23.466c-1.431-.027-2.443.156-3.513.389v.195h.195c.683 1.402 1.888 2.306 2.731 3.513.65 1.367 1.301 2.732 1.952 4.097l.194-.193c1.209-.853 1.762-2.214 1.755-4.294-.484-.509-.555-1.147-.975-1.755-.556-.811-1.635-1.272-2.339-1.952z"/>
</symbol>
<!-- icon de vite -->
!-- Uploaded to: SVG Repo, www.svgrepo.com, Generator: SVG Repo Mixer Tools -->
<symbol id='vite' viewBox="0 0 32 32"
  xmlns="http://www.w3.org/2000/svg" fill="none">
  <title>file_type_vite</title>
  <path d="M29.8836 6.146L16.7418 29.6457c-.2714.4851-.9684.488-1.2439.0052L2.0956 6.1482c-.3-.5262.1498-1.1635.746-1.057l13.156 2.3516a.7144.7144 0 00.2537-.0004l12.8808-2.3478c.5942-.1083 1.0463.5241.7515 1.0513z" fill="url(#paint0_linear)"/>
  <path d="M22.2644 2.0069l-9.7253 1.9056a.3571.3571 0 00-.2879.3294l-.5982 10.1038c-.014.238.2045.4227.4367.3691l2.7077-.6248c.2534-.0585.4823.1647.4302.4194l-.8044 3.9393c-.0542.265.1947.4918.4536.4132l1.6724-.5082c.2593-.0787.5084.1487.4536.414l-1.2784 6.1877c-.08.387.4348.598.6495.2662L16.5173 25 24.442 9.1848c.1327-.2648-.096-.5667-.387-.5106l-2.787.5379c-.262.0505-.4848-.1934-.4109-.4497l1.8191-6.306c.074-.2568-.1496-.5009-.4118-.4495z" fill="url(#paint1_linear)"/>
  <defs id="defs50">
    <linearGradient id="paint0_linear" x1="6.0002" y1="32.9999" x2="235" y2="344" gradientUnits="userSpaceOnUse" gradientTransform="matrix(.07142 0 0 .07142 1.3398 1.8944)">
      <stop stop-color="#41D1FF" id="stop38"/>
      <stop offset="1" stop-color="#BD34FE" id="stop40"/>
    </linearGradient>
    <linearGradient id="paint1_linear" x1="194.651" y1="8.8182" x2="236.076" y2="292.989" gradientUnits="userSpaceOnUse" gradientTransform="matrix(.07142 0 0 .07142 1.3398 1.8944)">
      <stop stop-color="#FFEA83" id="stop43"/>
      <stop offset=".0833" stop-color="#FFDD35" id="stop45"/>
      <stop offset="1" stop-color="#FFA800" id="stop47"/>
    </linearGradient>
  </defs>
</symbol>

</svg>